<svg xmlns="http://www.w3.org/2000/svg" id="export" class="canvas" preserveAspectRatio="xMidYMid meet" style="" width="147" height="674"><rect id="background" fill="#fff" pointer-events="all" width="147" height="674"/><g id="origin" transform="translate(6.6640625, 6.6640625) scale(1)"><g id="clusters" class="clusters"/><g id="edge-paths" class="edge-paths"><defs><marker id="arrowhead" viewBox="0 0 10 10" refX="9" refY="5" markerUnits="strokeWidth" markerWidth="8" markerHeight="6" orient="auto" style="fill: rgb(0, 0, 0);"><path d="M 0 0 L 10 5 L 0 10 L 4 5 z" style="stroke-width: 1;"/></marker><marker id="arrowhead-select" viewBox="0 0 10 10" refX="9" refY="5" markerUnits="strokeWidth" markerWidth="8" markerHeight="6" orient="auto" style="fill: rgb(238, 0, 0);"><path d="M 0 0 L 10 5 L 0 10 L 4 5 z" style="stroke-width: 1;"/></marker><marker id="arrowhead-hover" viewBox="0 0 10 10" refX="9" refY="5" markerUnits="strokeWidth" markerWidth="8" markerHeight="6" orient="auto"><path d="M 0 0 L 10 5 L 0 10 L 4 5 z" style="stroke-width: 1;"/></marker></defs><path id="edge-input" class="edge-path" d="M66.640625,23L66.640625,24.666666666666668C66.640625,26.333333333333332,66.640625,29.666666666666668,66.640625,35C66.640625,40.333333333333336,66.640625,47.666666666666664,66.640625,55C66.640625,62.333333333333336,66.640625,69.66666666666667,66.640625,75C66.640625,80.33333333333333,66.640625,83.66666666666667,66.640625,85.33333333333333L66.640625,87" style="stroke: rgb(0, 0, 0); stroke-width: 1px; fill: none; marker-end: url(&quot;#arrowhead&quot;);"/><path class="edge-path-hit-test" d="M66.640625,23L66.640625,24.666666666666668C66.640625,26.333333333333332,66.640625,29.666666666666668,66.640625,35C66.640625,40.333333333333336,66.640625,47.666666666666664,66.640625,55C66.640625,62.333333333333336,66.640625,69.66666666666667,66.640625,75C66.640625,80.33333333333333,66.640625,83.66666666666667,66.640625,85.33333333333333L66.640625,87" style="pointer-events: stroke; stroke-width: 0.5em; fill: none; stroke: rgb(0, 0, 0); stroke-opacity: 0.001;"/><path id="edge-embedding_input" class="edge-path" d="M66.640625,144L66.640625,145.66666666666666C66.640625,147.33333333333334,66.640625,150.66666666666666,66.640625,154C66.640625,157.33333333333334,66.640625,160.66666666666666,66.640625,162.33333333333334L66.640625,164" style="stroke: rgb(0, 0, 0); stroke-width: 1px; fill: none; marker-end: url(&quot;#arrowhead&quot;);"/><path class="edge-path-hit-test" d="M66.640625,144L66.640625,145.66666666666666C66.640625,147.33333333333334,66.640625,150.66666666666666,66.640625,154C66.640625,157.33333333333334,66.640625,160.66666666666666,66.640625,162.33333333333334L66.640625,164" style="pointer-events: stroke; stroke-width: 0.5em; fill: none; stroke: rgb(0, 0, 0); stroke-opacity: 0.001;"/><path id="edge-embedding" class="edge-path" d="M66.640625,291L66.640625,292.6666666666667C66.640625,294.3333333333333,66.640625,297.6666666666667,66.640625,301C66.640625,304.3333333333333,66.640625,307.6666666666667,66.640625,309.3333333333333L66.640625,311" style="stroke: rgb(0, 0, 0); stroke-width: 1px; fill: none; marker-end: url(&quot;#arrowhead&quot;);"/><path class="edge-path-hit-test" d="M66.640625,291L66.640625,292.6666666666667C66.640625,294.3333333333333,66.640625,297.6666666666667,66.640625,301C66.640625,304.3333333333333,66.640625,307.6666666666667,66.640625,309.3333333333333L66.640625,311" style="pointer-events: stroke; stroke-width: 0.5em; fill: none; stroke: rgb(0, 0, 0); stroke-opacity: 0.001;"/><path id="edge-lstm" class="edge-path" d="M66.640625,461L66.640625,462.6666666666667C66.640625,464.3333333333333,66.640625,467.6666666666667,66.640625,471C66.640625,474.3333333333333,66.640625,477.6666666666667,66.640625,479.3333333333333L66.640625,481" style="stroke: rgb(0, 0, 0); stroke-width: 1px; fill: none; marker-end: url(&quot;#arrowhead&quot;);"/><path class="edge-path-hit-test" d="M66.640625,461L66.640625,462.6666666666667C66.640625,464.3333333333333,66.640625,467.6666666666667,66.640625,471C66.640625,474.3333333333333,66.640625,477.6666666666667,66.640625,479.3333333333333L66.640625,481" style="pointer-events: stroke; stroke-width: 0.5em; fill: none; stroke: rgb(0, 0, 0); stroke-opacity: 0.001;"/><path id="edge-dense" class="edge-path" d="M66.640625,617L66.640625,618.6666666666666C66.640625,620.3333333333334,66.640625,623.6666666666666,66.640625,627C66.640625,630.3333333333334,66.640625,633.6666666666666,66.640625,635.3333333333334L66.640625,637" style="stroke: rgb(0, 0, 0); stroke-width: 1px; fill: none; marker-end: url(&quot;#arrowhead&quot;);"/><path class="edge-path-hit-test" d="M66.640625,617L66.640625,618.6666666666666C66.640625,620.3333333333334,66.640625,623.6666666666666,66.640625,627C66.640625,630.3333333333334,66.640625,633.6666666666666,66.640625,635.3333333333334L66.640625,637" style="pointer-events: stroke; stroke-width: 0.5em; fill: none; stroke: rgb(0, 0, 0); stroke-opacity: 0.001;"/></g><g id="edge-labels" class="edge-labels"><text class="edge-label" id="edge-label-edge-input" style="opacity: 1; font-family: -apple-system, BlinkMacSystemFont, &quot;Segoe WPC&quot;, &quot;Segoe UI&quot;, Ubuntu, &quot;Droid Sans&quot;, sans-serif, &quot;PingFang SC&quot;; font-size: 10px;" transform="translate(71.640625,48)"><tspan xml:space="preserve" dy="1em" x="1">?×?</tspan></text></g><g id="nodes" class="nodes"><g id="input-name-input" class="node graph-input" style="opacity: 1;" transform="translate(46.85009765625,0)"><g class="node-item graph-item-input" transform="translate(0,0)"><path d="M5,0h29.5810546875a5,5 0 0 1 5,5v13a5,5 0 0 1 -5,5h-29.5810546875a5,5 0 0 1 -5,-5v-13a5,5 0 0 1 5,-5z" style="stroke: rgb(0, 0, 0); fill: rgb(238, 238, 238); stroke-width: 0;"/><text x="6" y="16" style="font-family: -apple-system, BlinkMacSystemFont, &quot;Segoe WPC&quot;, &quot;Segoe UI&quot;, Ubuntu, &quot;Droid Sans&quot;, sans-serif, &quot;PingFang SC&quot;; font-size: 11px; text-rendering: geometricprecision;">input</text><title>float32[?,?]</title></g><path class="node border" d="M5,0h29.5810546875a5,5 0 0 1 5,5v13a5,5 0 0 1 -5,5h-29.5810546875a5,5 0 0 1 -5,-5v-13a5,5 0 0 1 5,-5z" style="stroke: rgb(51, 51, 51); fill: none; stroke-width: 1px;"/></g><g id="node-name-embedding_input" class="node graph-node" style="opacity: 1;" transform="translate(29.140625,87)"><g class="node-item node-item-type node-item-type-data" transform="translate(0,0)"><path d="M5,0h65a5,5 0 0 1 5,5v18a0,0 0 0 1 0,0h-75a0,0 0 0 1 0,0v-18a5,5 0 0 1 5,-5z" style="stroke: rgb(0, 0, 0); fill: rgb(85, 85, 85); stroke-width: 0;"/><text x="6" y="16" style="font-family: -apple-system, BlinkMacSystemFont, &quot;Segoe WPC&quot;, &quot;Segoe UI&quot;, Ubuntu, &quot;Droid Sans&quot;, sans-serif, &quot;PingFang SC&quot;; font-size: 11px; text-rendering: geometricprecision; fill: rgb(255, 255, 255);">InputLayer</text><title>embedding_input</title></g><g class="node-attribute" transform="translate(0,23)"><path d="M0,0h75a0,0 0 0 1 0,0v29a5,5 0 0 1 -5,5h-65a5,5 0 0 1 -5,-5v-29a0,0 0 0 1 0,0z" style="stroke: rgb(0, 0, 0); fill: rgb(255, 255, 255); stroke-width: 0;"/><text xml:space="preserve" x="6" y="14" style="font-family: -apple-system, BlinkMacSystemFont, &quot;Segoe WPC&quot;, &quot;Segoe UI&quot;, Ubuntu, &quot;Droid Sans&quot;, sans-serif, &quot;PingFang SC&quot;; font-size: 9px; font-weight: normal; text-rendering: geometricprecision;"><tspan>ragged</tspan><tspan> = false</tspan></text><text xml:space="preserve" x="6" y="28" style="font-family: -apple-system, BlinkMacSystemFont, &quot;Segoe WPC&quot;, &quot;Segoe UI&quot;, Ubuntu, &quot;Droid Sans&quot;, sans-serif, &quot;PingFang SC&quot;; font-size: 9px; font-weight: normal; text-rendering: geometricprecision;"><tspan>sparse</tspan><tspan> = false</tspan></text><line class="node" x1="0" x2="75" y1="0" y2="0" style="stroke: rgb(51, 51, 51); fill: none; stroke-width: 1px;"/></g><path class="node border" d="M5,0h65a5,5 0 0 1 5,5v47a5,5 0 0 1 -5,5h-65a5,5 0 0 1 -5,-5v-47a5,5 0 0 1 5,-5z" style="stroke: rgb(51, 51, 51); fill: none; stroke-width: 1px;"/></g><g id="node-name-embedding" class="node graph-node" style="opacity: 1;" transform="translate(1.4140625,164)"><g class="node-item node-item-type node-item-type-transform" transform="translate(0,0)"><path d="M5,0h120.453125a5,5 0 0 1 5,5v18a0,0 0 0 1 0,0h-130.453125a0,0 0 0 1 0,0v-18a5,5 0 0 1 5,-5z" style="stroke: rgb(0, 0, 0); fill: rgb(51, 85, 68); stroke-width: 0;"/><text x="6" y="16" style="font-family: -apple-system, BlinkMacSystemFont, &quot;Segoe WPC&quot;, &quot;Segoe UI&quot;, Ubuntu, &quot;Droid Sans&quot;, sans-serif, &quot;PingFang SC&quot;; font-size: 11px; text-rendering: geometricprecision; fill: rgb(255, 255, 255);">Embedding</text><title>embedding</title></g><g class="node-attribute" transform="translate(0,23)"><path d="M0,0h130.453125a0,0 0 0 1 0,0v99a5,5 0 0 1 -5,5h-120.453125a5,5 0 0 1 -5,-5v-99a0,0 0 0 1 0,0z" style="stroke: rgb(0, 0, 0); fill: rgb(255, 255, 255); stroke-width: 0;"/><text id="initializer-embedding/embeddings:0" xml:space="preserve" x="6" y="14" style="font-family: -apple-system, BlinkMacSystemFont, &quot;Segoe WPC&quot;, &quot;Segoe UI&quot;, Ubuntu, &quot;Droid Sans&quot;, sans-serif, &quot;PingFang SC&quot;; font-size: 9px; font-weight: normal; text-rendering: geometricprecision;"><title>float32[88584,32]</title><tspan style="font-weight: bold;">embeddings</tspan><tspan>〈88584×32〉</tspan></text><text xml:space="preserve" x="6" y="28" style="font-family: -apple-system, BlinkMacSystemFont, &quot;Segoe WPC&quot;, &quot;Segoe UI&quot;, Ubuntu, &quot;Droid Sans&quot;, sans-serif, &quot;PingFang SC&quot;; font-size: 9px; font-weight: normal; text-rendering: geometricprecision;"><tspan>activity_regularizer</tspan><tspan> = </tspan></text><text xml:space="preserve" x="6" y="42" style="font-family: -apple-system, BlinkMacSystemFont, &quot;Segoe WPC&quot;, &quot;Segoe UI&quot;, Ubuntu, &quot;Droid Sans&quot;, sans-serif, &quot;PingFang SC&quot;; font-size: 9px; font-weight: normal; text-rendering: geometricprecision;"><tspan>batch_input_shape</tspan><tspan> = null, null</tspan></text><text xml:space="preserve" x="6" y="56" style="font-family: -apple-system, BlinkMacSystemFont, &quot;Segoe WPC&quot;, &quot;Segoe UI&quot;, Ubuntu, &quot;Droid Sans&quot;, sans-serif, &quot;PingFang SC&quot;; font-size: 9px; font-weight: normal; text-rendering: geometricprecision;"><tspan>embeddings_constraint</tspan><tspan> = </tspan></text><text xml:space="preserve" x="6" y="70" style="font-family: -apple-system, BlinkMacSystemFont, &quot;Segoe WPC&quot;, &quot;Segoe UI&quot;, Ubuntu, &quot;Droid Sans&quot;, sans-serif, &quot;PingFang SC&quot;; font-size: 9px; font-weight: normal; text-rendering: geometricprecision;"><tspan>input_dim</tspan><tspan> = 88584</tspan></text><text xml:space="preserve" x="6" y="84" style="font-family: -apple-system, BlinkMacSystemFont, &quot;Segoe WPC&quot;, &quot;Segoe UI&quot;, Ubuntu, &quot;Droid Sans&quot;, sans-serif, &quot;PingFang SC&quot;; font-size: 9px; font-weight: normal; text-rendering: geometricprecision;"><tspan>input_length</tspan><tspan> = </tspan></text><text xml:space="preserve" x="6" y="98" style="font-family: -apple-system, BlinkMacSystemFont, &quot;Segoe WPC&quot;, &quot;Segoe UI&quot;, Ubuntu, &quot;Droid Sans&quot;, sans-serif, &quot;PingFang SC&quot;; font-size: 9px; font-weight: normal; text-rendering: geometricprecision;"><tspan>output_dim</tspan><tspan> = 32</tspan></text><line class="node" x1="0" x2="130.453125" y1="0" y2="0" style="stroke: rgb(51, 51, 51); fill: none; stroke-width: 1px;"/></g><path class="node border" d="M5,0h120.453125a5,5 0 0 1 5,5v117a5,5 0 0 1 -5,5h-120.453125a5,5 0 0 1 -5,-5v-117a5,5 0 0 1 5,-5z" style="stroke: rgb(51, 51, 51); fill: none; stroke-width: 1px;"/></g><g id="node-name-lstm" class="node graph-node" style="opacity: 1;" transform="translate(0,311)"><g class="node-item node-item-type node-item-type-layer" transform="translate(0,0)"><path d="M5,0h123.28125a5,5 0 0 1 5,5v18a0,0 0 0 1 0,0h-133.28125a0,0 0 0 1 0,0v-18a5,5 0 0 1 5,-5z" style="stroke: rgb(0, 0, 0); fill: rgb(51, 85, 136); stroke-width: 0;"/><text x="6" y="16" style="font-family: -apple-system, BlinkMacSystemFont, &quot;Segoe WPC&quot;, &quot;Segoe UI&quot;, Ubuntu, &quot;Droid Sans&quot;, sans-serif, &quot;PingFang SC&quot;; font-size: 11px; text-rendering: geometricprecision; fill: rgb(255, 255, 255);">LSTM</text><title>lstm</title></g><g class="node-attribute" transform="translate(0,23)"><path d="M0,0h133.28125a0,0 0 0 1 0,0v104a0,0 0 0 1 0,0h-133.28125a0,0 0 0 1 0,0v-104a0,0 0 0 1 0,0z" style="stroke: rgb(0, 0, 0); fill: rgb(255, 255, 255); stroke-width: 0;"/><text id="initializer-lstm/lstm_cell/kernel:0" xml:space="preserve" x="6" y="14" style="font-family: -apple-system, BlinkMacSystemFont, &quot;Segoe WPC&quot;, &quot;Segoe UI&quot;, Ubuntu, &quot;Droid Sans&quot;, sans-serif, &quot;PingFang SC&quot;; font-size: 9px; font-weight: normal; text-rendering: geometricprecision;"><title>float32[32,128]</title><tspan style="font-weight: bold;">kernel</tspan><tspan>〈32×128〉</tspan></text><text id="initializer-lstm/lstm_cell/recurrent_kernel:0" xml:space="preserve" x="6" y="28" style="font-family: -apple-system, BlinkMacSystemFont, &quot;Segoe WPC&quot;, &quot;Segoe UI&quot;, Ubuntu, &quot;Droid Sans&quot;, sans-serif, &quot;PingFang SC&quot;; font-size: 9px; font-weight: normal; text-rendering: geometricprecision;"><title>float32[32,128]</title><tspan style="font-weight: bold;">recurrent_kernel</tspan><tspan>〈32×128〉</tspan></text><text id="initializer-lstm/lstm_cell/bias:0" xml:space="preserve" x="6" y="42" style="font-family: -apple-system, BlinkMacSystemFont, &quot;Segoe WPC&quot;, &quot;Segoe UI&quot;, Ubuntu, &quot;Droid Sans&quot;, sans-serif, &quot;PingFang SC&quot;; font-size: 9px; font-weight: normal; text-rendering: geometricprecision;"><title>float32[128]</title><tspan style="font-weight: bold;">bias</tspan><tspan>〈128〉</tspan></text><text xml:space="preserve" x="6" y="56" style="font-family: -apple-system, BlinkMacSystemFont, &quot;Segoe WPC&quot;, &quot;Segoe UI&quot;, Ubuntu, &quot;Droid Sans&quot;, sans-serif, &quot;PingFang SC&quot;; font-size: 9px; font-weight: normal; text-rendering: geometricprecision;"><tspan>implementation</tspan><tspan> = 2</tspan></text><text xml:space="preserve" x="6" y="70" style="font-family: -apple-system, BlinkMacSystemFont, &quot;Segoe WPC&quot;, &quot;Segoe UI&quot;, Ubuntu, &quot;Droid Sans&quot;, sans-serif, &quot;PingFang SC&quot;; font-size: 9px; font-weight: normal; text-rendering: geometricprecision;"><tspan>recurrent_activation</tspan><tspan> = sigmoid</tspan></text><text xml:space="preserve" x="6" y="84" style="font-family: -apple-system, BlinkMacSystemFont, &quot;Segoe WPC&quot;, &quot;Segoe UI&quot;, Ubuntu, &quot;Droid Sans&quot;, sans-serif, &quot;PingFang SC&quot;; font-size: 9px; font-weight: normal; text-rendering: geometricprecision;"><tspan>time_major</tspan><tspan> = false</tspan></text><text xml:space="preserve" x="6" y="98" style="font-family: -apple-system, BlinkMacSystemFont, &quot;Segoe WPC&quot;, &quot;Segoe UI&quot;, Ubuntu, &quot;Droid Sans&quot;, sans-serif, &quot;PingFang SC&quot;; font-size: 9px; font-weight: normal; text-rendering: geometricprecision;"><tspan>units</tspan><tspan> = 32</tspan></text><line class="node" x1="0" x2="133.28125" y1="0" y2="0" style="stroke: rgb(51, 51, 51); fill: none; stroke-width: 1px;"/></g><g class="node-item node-item-type node-item-type-activation" transform="translate(0,127)"><path d="M0,0h133.28125a0,0 0 0 1 0,0v18a5,5 0 0 1 -5,5h-123.28125a5,5 0 0 1 -5,-5v-18a0,0 0 0 1 0,0z" style="stroke: rgb(0, 0, 0); fill: rgb(112, 41, 33); stroke-width: 0;"/><text x="6" y="16" style="font-family: -apple-system, BlinkMacSystemFont, &quot;Segoe WPC&quot;, &quot;Segoe UI&quot;, Ubuntu, &quot;Droid Sans&quot;, sans-serif, &quot;PingFang SC&quot;; font-size: 11px; text-rendering: geometricprecision; fill: rgb(255, 255, 255);">TanH</text></g><line class="node" x1="0" x2="133.28125" y1="127" y2="127" style="stroke: rgb(51, 51, 51); fill: none; stroke-width: 1px;"/><path class="node border" d="M5,0h123.28125a5,5 0 0 1 5,5v140a5,5 0 0 1 -5,5h-123.28125a5,5 0 0 1 -5,-5v-140a5,5 0 0 1 5,-5z" style="stroke: rgb(51, 51, 51); fill: none; stroke-width: 1px;"/></g><g id="node-name-dense" class="node graph-node" style="opacity: 1;" transform="translate(19.96875,481)"><g class="node-item node-item-type node-item-type-layer" transform="translate(0,0)"><path d="M5,0h83.34375a5,5 0 0 1 5,5v18a0,0 0 0 1 0,0h-93.34375a0,0 0 0 1 0,0v-18a5,5 0 0 1 5,-5z" style="stroke: rgb(0, 0, 0); fill: rgb(51, 85, 136); stroke-width: 0;"/><text x="6" y="16" style="font-family: -apple-system, BlinkMacSystemFont, &quot;Segoe WPC&quot;, &quot;Segoe UI&quot;, Ubuntu, &quot;Droid Sans&quot;, sans-serif, &quot;PingFang SC&quot;; font-size: 11px; text-rendering: geometricprecision; fill: rgb(255, 255, 255);">Dense</text><title>dense</title></g><g class="node-attribute" transform="translate(0,23)"><path d="M0,0h93.34375a0,0 0 0 1 0,0v90a0,0 0 0 1 0,0h-93.34375a0,0 0 0 1 0,0v-90a0,0 0 0 1 0,0z" style="stroke: rgb(0, 0, 0); fill: rgb(255, 255, 255); stroke-width: 0;"/><text id="initializer-dense/kernel:0" xml:space="preserve" x="6" y="14" style="font-family: -apple-system, BlinkMacSystemFont, &quot;Segoe WPC&quot;, &quot;Segoe UI&quot;, Ubuntu, &quot;Droid Sans&quot;, sans-serif, &quot;PingFang SC&quot;; font-size: 9px; font-weight: normal; text-rendering: geometricprecision;"><title>float32[32,1]</title><tspan style="font-weight: bold;">kernel</tspan><tspan>〈32×1〉</tspan></text><text id="initializer-dense/bias:0" xml:space="preserve" x="6" y="28" style="font-family: -apple-system, BlinkMacSystemFont, &quot;Segoe WPC&quot;, &quot;Segoe UI&quot;, Ubuntu, &quot;Droid Sans&quot;, sans-serif, &quot;PingFang SC&quot;; font-size: 9px; font-weight: normal; text-rendering: geometricprecision;"><title>float32[1]</title><tspan style="font-weight: bold;">bias</tspan><tspan>〈1〉</tspan></text><text xml:space="preserve" x="6" y="42" style="font-family: -apple-system, BlinkMacSystemFont, &quot;Segoe WPC&quot;, &quot;Segoe UI&quot;, Ubuntu, &quot;Droid Sans&quot;, sans-serif, &quot;PingFang SC&quot;; font-size: 9px; font-weight: normal; text-rendering: geometricprecision;"><tspan>activation</tspan><tspan> = sigmoid</tspan></text><text xml:space="preserve" x="6" y="56" style="font-family: -apple-system, BlinkMacSystemFont, &quot;Segoe WPC&quot;, &quot;Segoe UI&quot;, Ubuntu, &quot;Droid Sans&quot;, sans-serif, &quot;PingFang SC&quot;; font-size: 9px; font-weight: normal; text-rendering: geometricprecision;"><tspan>bias_constraint</tspan><tspan> = </tspan></text><text xml:space="preserve" x="6" y="70" style="font-family: -apple-system, BlinkMacSystemFont, &quot;Segoe WPC&quot;, &quot;Segoe UI&quot;, Ubuntu, &quot;Droid Sans&quot;, sans-serif, &quot;PingFang SC&quot;; font-size: 9px; font-weight: normal; text-rendering: geometricprecision;"><tspan>kernel_constraint</tspan><tspan> = </tspan></text><text xml:space="preserve" x="6" y="84" style="font-family: -apple-system, BlinkMacSystemFont, &quot;Segoe WPC&quot;, &quot;Segoe UI&quot;, Ubuntu, &quot;Droid Sans&quot;, sans-serif, &quot;PingFang SC&quot;; font-size: 9px; font-weight: normal; text-rendering: geometricprecision;"><tspan>units</tspan><tspan> = 1</tspan></text><line class="node" x1="0" x2="93.34375" y1="0" y2="0" style="stroke: rgb(51, 51, 51); fill: none; stroke-width: 1px;"/></g><g class="node-item node-item-type node-item-type-activation" transform="translate(0,113)"><path d="M0,0h93.34375a0,0 0 0 1 0,0v18a5,5 0 0 1 -5,5h-83.34375a5,5 0 0 1 -5,-5v-18a0,0 0 0 1 0,0z" style="stroke: rgb(0, 0, 0); fill: rgb(112, 41, 33); stroke-width: 0;"/><text x="6" y="16" style="font-family: -apple-system, BlinkMacSystemFont, &quot;Segoe WPC&quot;, &quot;Segoe UI&quot;, Ubuntu, &quot;Droid Sans&quot;, sans-serif, &quot;PingFang SC&quot;; font-size: 11px; text-rendering: geometricprecision; fill: rgb(255, 255, 255);">Sigmoid</text></g><line class="node" x1="0" x2="93.34375" y1="113" y2="113" style="stroke: rgb(51, 51, 51); fill: none; stroke-width: 1px;"/><path class="node border" d="M5,0h83.34375a5,5 0 0 1 5,5v126a5,5 0 0 1 -5,5h-83.34375a5,5 0 0 1 -5,-5v-126a5,5 0 0 1 5,-5z" style="stroke: rgb(51, 51, 51); fill: none; stroke-width: 1px;"/></g><g class="node" style="opacity: 1;" transform="translate(45.079345703125,637)"><g class="node-item graph-item-output" transform="translate(0,0)"><path d="M5,0h33.12255859375a5,5 0 0 1 5,5v13a5,5 0 0 1 -5,5h-33.12255859375a5,5 0 0 1 -5,-5v-13a5,5 0 0 1 5,-5z" style="stroke: rgb(0, 0, 0); fill: rgb(238, 238, 238); stroke-width: 0;"/><text x="6" y="16" style="font-family: -apple-system, BlinkMacSystemFont, &quot;Segoe WPC&quot;, &quot;Segoe UI&quot;, Ubuntu, &quot;Droid Sans&quot;, sans-serif, &quot;PingFang SC&quot;; font-size: 11px; text-rendering: geometricprecision;">dense</text></g><path class="node border" d="M5,0h33.12255859375a5,5 0 0 1 5,5v13a5,5 0 0 1 -5,5h-33.12255859375a5,5 0 0 1 -5,-5v-13a5,5 0 0 1 5,-5z" style="stroke: rgb(51, 51, 51); fill: none; stroke-width: 1px;"/></g></g></g></svg>